<svg width="101" height="87" viewBox="0 0 101 87" fill="none" xmlns="http://www.w3.org/2000/svg">
<path d="M46.3926 0.199054C46.1561 0.232843 45.3283 0.351105 44.5342 0.452472C43.7402 0.553839 42.5745 0.773468 41.9156 0.942414C41.2736 1.11136 40.4289 1.2972 40.0572 1.38167C39.2462 1.53372 39.4997 1.46614 37.7764 2.00677C32.3702 3.73001 27.6735 6.19662 23.5005 9.52484C19.581 12.6334 15.7121 17.0598 13.8369 20.557C13.5665 21.0638 13.1273 21.8072 12.857 22.2295C12.1643 23.3108 10.4917 26.8924 10.1876 27.923C10.0356 28.3961 9.83285 28.9536 9.73148 29.1563C9.63011 29.3421 9.51185 29.7476 9.47806 30.0348C9.44427 30.322 9.22464 31.133 8.98812 31.8425C8.26165 34.0219 7.70413 38.8876 7.70413 43.0943C7.70413 45.0372 7.78861 47.2166 7.87308 47.9092C8.24476 50.8151 9.0557 54.3461 9.74837 56.1031C9.93421 56.5593 10.1201 57.0999 10.1707 57.3026C10.2045 57.4885 10.5086 58.2487 10.8465 58.9921C11.1675 59.7185 11.5561 60.5971 11.7081 60.918C12.1305 61.8979 12.9752 63.5198 13.2118 63.807C13.3469 63.9422 13.4483 64.128 13.4483 64.1956C13.4483 64.2463 13.651 64.618 13.9044 65.0234C15.9825 68.301 17.6381 70.4297 20.2568 73.1835C21.0677 74.0282 21.6759 74.7716 21.6083 74.8392C21.4394 75.0081 16.8103 74.9405 15.9825 74.7547C14.5295 74.4337 13.5496 73.6565 11.7081 71.3927C10.762 70.2269 9.6639 68.943 9.27533 68.5206C8.58265 67.7772 8.54886 67.7603 7.41693 67.7265C6.28499 67.6928 5.16995 67.9124 5.16995 68.1827C5.16995 68.2503 5.28821 68.4192 5.44026 68.5375C5.59232 68.6557 5.99778 69.1795 6.35257 69.7032C6.70735 70.21 7.31556 70.9703 7.68724 71.3758C8.07581 71.7812 8.37991 72.1698 8.37991 72.2205C8.37991 72.2881 8.54886 72.5077 8.76849 72.6935C9.52874 73.4031 10.0694 74.0958 10.1707 74.5182L10.2721 74.9405H5.87952C3.42981 74.9405 1.28421 75.0081 1.04768 75.1095C0.62532 75.2615 0.608426 75.3291 0.608426 76.461C0.608426 78.4715 0.135378 78.3194 6.2681 78.3194C9.19085 78.3194 11.5899 78.3701 11.5899 78.4377C11.5899 78.4884 11.2182 78.9783 10.7789 79.4852C9.46117 81.0226 6.89319 84.1311 6.5722 84.5704C6.16673 85.1448 6.5722 85.3307 8.22786 85.3138H9.76527L10.5593 84.469C10.9817 83.996 11.9616 82.8472 12.7387 81.918C14.2592 80.0596 15.0364 79.3162 16.0669 78.7756C16.7089 78.4208 17.013 78.4039 21.2873 78.3532L25.8489 78.3025L26.6091 78.708C27.0315 78.9445 27.9269 79.4176 28.5689 79.7724C33.9751 82.6782 37.8102 84.2325 41.8311 85.1448C44.7539 85.8037 51.461 86.1247 55.0089 85.753C55.8874 85.6686 56.8504 85.5841 57.1207 85.601C57.9992 85.601 63.2534 84.2832 64.6387 83.7088C65.0611 83.5398 65.9396 83.2188 66.5816 82.9992C68.119 82.4755 70.4842 81.3267 72.0385 80.3637C72.7143 79.9413 73.728 79.2993 74.2855 78.9445L75.2992 78.3194H79.8607H84.4053L85.7231 78.9783C86.872 79.5527 87.1761 79.823 88.4094 81.2929C89.1527 82.2221 90.3184 83.4723 90.9604 84.1143L92.143 85.2462L93.5622 85.2631C94.9644 85.28 95.4206 85.2631 95.522 85.1617C95.5726 85.111 94.1704 83.3371 91.5517 80.144C90.9604 79.4345 90.4874 78.7418 90.4874 78.5897C90.4874 78.3532 91.0787 78.3194 95.522 78.2856L100.54 78.235L100.59 76.8665C100.624 75.7684 100.573 75.4305 100.371 75.2108C100.134 74.9743 99.5091 74.9405 95.5389 74.9405C93.0385 74.9405 90.9942 74.8898 90.9942 74.8054C90.9942 74.7378 91.4504 74.1465 92.0248 73.5045C92.5823 72.8456 93.6973 71.5447 94.4745 70.5986C96.1302 68.5882 96.2653 68.132 95.2685 67.8617C94.5252 67.659 93.9677 67.6252 93.2074 67.7772C92.785 67.8617 92.3627 68.2672 91.2645 69.6018C89.2541 72.0516 87.0747 74.2309 86.3144 74.5519C85.5204 74.8898 80.2662 75.0926 79.979 74.8054C79.8438 74.6702 80.0972 74.3154 80.8744 73.5383C82.0739 72.3557 82.7159 71.6461 83.4761 70.6493C85.7738 67.6421 86.4158 66.7129 87.2098 65.3444C88.139 63.7394 91.3321 57.3195 91.3321 57.0661C91.3321 56.9816 91.5517 56.3734 91.8221 55.7145C92.0924 55.0556 92.2782 54.4981 92.2444 54.4643C92.2106 54.4305 92.3289 54.0251 92.4978 53.552C92.6837 53.0959 92.8695 52.268 92.9371 51.7105C93.0047 51.153 93.1567 49.8352 93.2919 48.7878C93.427 47.7403 93.5284 46.3887 93.5284 45.7974C93.5284 45.2061 93.596 44.6824 93.6636 44.6317C93.748 44.581 93.8156 44.1924 93.8494 43.7701C93.9001 42.8071 93.5791 38.6004 93.3426 37.0967C93.2581 36.4885 93.1398 35.7621 93.106 35.4918C93.0722 35.2046 93.0385 34.9849 93.0216 34.9849C93.0047 34.9849 92.9709 34.7315 92.9371 34.4105C92.9202 34.0895 92.7681 33.4475 92.6161 32.9745C91.3659 28.9705 91.0449 28.0244 90.4536 26.5377C89.7102 24.6286 89.0851 23.4628 87.1085 20.2022C85.588 17.6849 84.9798 16.8402 83.3072 14.9649C79.4721 10.6399 76.0763 7.90297 70.8897 4.94642C66.9871 2.73324 62.679 1.36478 56.8841 0.52005C54.4006 0.165265 53.3701 0.0976864 50.3797 0.114581C48.42 0.131475 46.6292 0.165265 46.3926 0.199054ZM55.9549 5.57152C60.6178 6.21351 62.1215 6.61898 66.2437 8.35912C70.3829 10.0993 73.1029 11.907 77.09 15.6407C81.4826 19.746 85.1825 25.3043 86.872 30.3389C87.024 30.7613 87.2267 31.3188 87.3619 31.606C87.4802 31.8763 87.6322 32.4338 87.6998 32.8224C87.7505 33.2279 87.9025 33.7854 88.0208 34.0895C88.1559 34.3936 88.308 34.9849 88.3756 35.4073C88.4431 35.8297 88.629 36.894 88.7979 37.7725C89.3048 40.4588 89.1696 45.544 88.4431 49.6832C88.3587 50.2407 88.2573 50.8489 88.2235 51.0347C88.1897 51.2206 88.1559 51.3726 88.139 51.3726C88.1053 51.3726 88.0715 51.4909 88.0377 51.626C87.2605 55.2584 85.6218 58.9583 82.699 63.7056C81.5502 65.564 78.8977 68.8078 77.1407 70.531C74.2855 73.3017 69.6902 76.3597 65.8214 78.0322C63.8447 78.8938 62.3073 79.4852 61.8005 79.5865C61.6146 79.6203 60.8713 79.8061 60.1448 79.992C58.5736 80.3975 55.144 80.9719 53.8262 81.0563C53.066 81.0901 52.897 81.0563 52.9139 80.8367C52.9308 80.7016 53.6235 79.5865 54.4513 78.387C56.1746 75.9204 57.3741 73.9268 58.8946 70.9703C61.7667 65.3951 62.7466 58.9245 61.6822 52.5046C61.5301 51.6092 62.0032 51.8457 62.3411 52.8425C62.51 53.3324 62.8479 54.0589 63.0675 54.4643C63.2872 54.8529 63.5068 55.3428 63.5406 55.5456C63.6251 55.9848 63.9123 56.2889 64.0643 56.1369C64.2164 56.0017 64.4191 51.1192 64.284 51.1192C64.2333 51.1192 64.1826 50.7137 64.1826 50.2238C64.1657 49.3284 63.8616 47.8755 63.2703 45.8988C62.8479 44.5134 62.8648 43.1619 63.3041 41.54C63.794 39.7323 64.4529 38.4821 65.5679 37.2995C68.1697 34.4781 71.2614 33.4982 77.6475 33.4813C79.5566 33.4644 81.6346 33.532 82.2766 33.6165L83.4424 33.7685L83.3241 33.2786C83.1383 32.5183 81.7698 30.6092 80.7223 29.6462C78.7964 27.8892 76.769 26.808 72.8326 25.4395C69.7409 24.3751 69.5888 24.2907 68.7779 23.3784C67.8656 22.3816 66.1255 20.878 65.872 20.878C65.7538 20.878 65.6524 20.7935 65.6524 20.6921C65.6524 20.6077 65.5848 20.557 65.5004 20.6077C65.4159 20.6752 65.3145 20.6415 65.2807 20.557C65.1625 20.2529 62.2904 18.952 60.7361 18.4958C55.9381 17.1105 50.5318 17.5329 46.0378 19.6447C43.9767 20.6077 42.3211 21.7903 40.4627 23.598C37.0668 26.9262 34.6171 30.7444 32.3533 36.252C31.9816 37.1305 31.4748 38.0597 31.2213 38.33C30.4273 39.1917 26.8963 42.1651 24.5987 43.939C22.0983 45.865 15.7966 51.1192 14.5126 52.3525C13.8369 53.0114 13.6003 53.0621 13.5159 52.589C13.499 52.4708 13.3131 51.7105 13.1273 50.8658C12.536 48.433 12.3839 46.1691 12.4853 41.5738C12.6036 37.0123 12.5867 37.0461 14.1241 31.5215C14.7661 29.2746 16.219 26.0815 17.7733 23.4966C18.7363 21.9254 18.8038 21.841 20.4426 19.6278C21.9124 17.6342 24.7507 14.8466 27.5721 12.6165C29.5488 11.0454 35.0564 8.15638 37.8609 7.21029C39.922 6.51761 43.5375 5.74046 45.8013 5.50394C46.8319 5.40257 47.8118 5.28431 47.9976 5.26742C49.3999 5.04779 53.2518 5.19984 55.9549 5.57152ZM60.2462 23.9528C61.5808 24.6286 62.0877 25.8957 61.5301 27.1796C60.7361 29.0549 58.1343 29.1394 56.9179 27.3148C56.4111 26.5545 56.3942 25.4902 56.901 24.8482C57.2558 24.392 58.7425 23.5811 59.2325 23.5811C59.3845 23.5811 59.8407 23.7501 60.2462 23.9528ZM45.8013 51.3051C47.4908 54.7684 48.0314 58.0629 47.5753 62.3034C47.3387 64.5166 47.1529 65.2599 46.0378 68.2334C44.7708 71.5954 43.4023 74.062 40.9526 77.4578C40.3275 78.3194 39.8038 79.1135 39.8038 79.2148C39.8038 79.2993 39.5841 79.3331 39.3138 79.2824C38.5198 79.1135 36.087 78.1336 36.087 77.9815C36.087 77.8971 36.239 77.7281 36.4417 77.593C37.2358 77.0354 40.2261 73.1835 41.7297 70.8182C43.6219 67.811 45.0242 64.0604 45.4803 60.8336C45.531 60.3605 45.6324 59.8368 45.6831 59.651C45.8351 59.0934 45.8689 54.9881 45.7169 54.1602C45.6493 53.7379 45.4296 52.6228 45.2269 51.6598C44.8383 49.717 44.8383 49.7676 44.9566 49.7676C45.0073 49.7676 45.379 50.4603 45.8013 51.3051Z" fill="white"/>
</svg>
